PathFileType	4	(X/Y/Z)	OpenSim_Sub09_EMGBaseline_Gyro.trc
DataRate	CameraRate	NumFrames	NumMarkers	Units	OrigDataRate	OrigDataStartFrame	OrigNumFrames
100	100	34	8	m	100	1	7301
Frame#	Time	torso_imu_offset_imu	pelvis_imu_offset_imu	tibia_r_imu_offset_imu	femur_r_imu_offset_imu	tibia_l_imu_offset_imu	femur_l_imu_offset_imu	toes_r_imu_offset_imu	toes_l_imu_offset_imu
				X1	Y1	Z1	X2	Y2	Z2	X3	Y3	Z3	X4	Y4	Z4	X5	Y5	Z5	X6	Y6	Z6	X7	Y7	Z7	X8		Y8	Z8	

1	0	0.01687800	0.03048800	-0.01064400	-0.01630800	-0.00489700	-0.01191400	0.01011900	0.03118100	0.00415400	-0.02828800	0.01295400	0.00751100	-0.01858700	0.00013800	0.01320900	-0.03240900	-0.01166800	-0.00399300	0.00341700	0.00442600	0.00002400	-0.00107500	0.01432300	0.00038800
2	0.01000000	0.01730100	0.03246300	-0.00752100	-0.01551200	-0.00428800	-0.00998900	0.01635800	0.03442900	-0.00085700	-0.01682800	0.01790500	-0.00045000	-0.01613500	-0.01088900	0.01404900	-0.03058900	-0.01079800	-0.00257000	0.00289800	0.00432100	-0.00387400	-0.00107500	0.01432200	0.00038800
3	0.02000000	0.01311500	0.03106200	-0.00879200	-0.01345400	-0.00808400	-0.00728900	0.01142800	0.02184600	-0.00450300	-0.01248700	0.01950500	0.00170100	-0.00647300	-0.00986600	0.01243100	-0.02162800	-0.01337500	0.00003600	0.00220900	0.00594700	-0.00329200	-0.00492800	0.01170200	-0.00090200
4	0.03000000	0.01043800	0.03805200	-0.00880300	-0.00769100	-0.00746600	-0.00710600	0.01110000	0.01947700	-0.00657900	-0.00806300	0.02589600	-0.00575700	0.00153700	-0.00401000	0.01687500	-0.01280000	-0.01330200	0.00638500	0.00122900	0.00723300	-0.00040300	-0.00037300	0.01217600	-0.00039000
5	0.04000000	0.01471700	0.04026100	-0.01025100	-0.00733100	-0.00948100	-0.01023500	0.00540500	0.01909900	-0.00844800	-0.00246000	0.02472300	-0.00857700	0.00924100	-0.00295500	0.01538900	-0.01279100	-0.01808800	0.00226000	0.00329800	0.00235500	-0.00214900	0.00010100	0.01404200	-0.00055600
6	0.05000000	0.01760500	0.04270200	-0.01767900	-0.00719500	-0.00605900	-0.00648200	0.00892400	0.01945000	-0.00365600	-0.00478900	0.02626900	-0.01054900	0.00355800	-0.00308400	0.01792800	-0.00586600	-0.01711600	0.00968300	0.00451600	0.00521000	-0.00069200	-0.00320000	0.01086300	0.00166700
7	0.06000000	0.01726200	0.04787900	-0.01585000	-0.00686200	-0.00043300	-0.00340700	0.00425300	0.01287400	-0.01044600	-0.00412200	0.01928800	-0.01178500	0.00349700	-0.00404400	0.01674200	-0.00388100	-0.01499700	0.01023700	0.00272700	0.00605100	0.00060600	-0.00115300	0.01674500	-0.00329000
8	0.07000000	0.02166800	0.05025800	-0.01303000	-0.00620100	-0.00324500	-0.00523500	-0.00435300	0.01550700	-0.00822500	0.00200800	0.01833000	-0.01033000	-0.01270800	0.00004200	0.01281200	-0.00421600	-0.01749900	0.01197200	0.00671400	0.00677900	-0.00212600	-0.00084700	0.01030700	-0.00022300
9	0.08000000	0.02318700	0.05863400	-0.01179200	-0.00159600	-0.00122000	-0.00384900	-0.01107200	0.02132300	-0.00517700	0.00903300	0.01609400	-0.00922300	-0.02450800	-0.00382200	0.01100700	-0.00582400	-0.01321400	0.01256100	0.00439700	0.00313900	-0.00286600	-0.00272700	0.01272800	0.00150200
10	0.09000000	0.02485200	0.06083300	-0.01395500	-0.00159600	-0.00122000	-0.00384900	0.00163900	0.02743100	-0.00365900	0.00937400	0.01300300	-0.01064200	-0.03508700	-0.00056600	0.00335300	-0.00810400	-0.01393300	0.01662000	0.00439700	0.00313900	-0.00286600	0.00088000	0.00946900	0.00234600
11	0.10000000	0.01829400	0.06821200	-0.01641200	0.00317400	-0.00341500	-0.00491500	0.01520500	0.02823000	-0.00282400	0.00904400	0.01689400	-0.01082800	-0.04076000	0.00552900	0.00873100	-0.00235700	-0.01272900	0.01627100	0.00301800	0.00639000	-0.00170300	-0.00132100	0.00843900	-0.00005700
12	0.11000000	0.01105200	0.07116800	-0.01386800	0.00297800	-0.00562000	-0.00423700	0.02324900	0.02776300	-0.00809600	0.00730900	0.02264800	-0.01654200	-0.03489200	-0.00391100	0.00406900	-0.00421500	-0.01271300	0.01609900	0.00041000	0.00241100	-0.00013500	-0.00116100	0.01016400	0.00200700
13	0.12000000	0.01373300	0.07894800	-0.01521000	0.00824400	-0.00640800	-0.00467900	0.02651000	0.02298300	-0.02065100	-0.00352200	0.02429800	-0.01714100	-0.02027600	-0.00843500	0.01240600	-0.00099900	-0.01649800	0.01904700	0.00549600	0.00392300	-0.00358300	-0.00068700	0.01203000	0.00184200
14	0.13000000	0.00869000	0.08055100	-0.02207700	0.01069700	-0.00579400	-0.00333600	0.02404000	0.02610900	-0.01398500	-0.00644500	0.02163300	-0.01537700	-0.01257500	-0.00427100	0.01234200	-0.00289600	-0.02038300	0.01599700	0.00152000	0.00757100	-0.00271300	0.00088000	0.00946700	0.00234700
15	0.14000000	0.02666900	0.07855600	-0.02024800	0.00667900	-0.00120400	-0.00675400	0.01596300	0.03575500	-0.00810000	-0.00520600	0.01726300	-0.01714300	-0.00316600	0.00224400	0.01024200	-0.00276900	-0.01824800	0.01637800	0.00288800	-0.00005700	-0.00201500	-0.00068700	0.01202900	0.00184200
16	0.15000000	0.03400700	0.08272400	-0.01787700	0.00777800	-0.00139100	-0.00352900	0.01222200	0.03491500	-0.00393000	0.00852900	0.01748600	-0.01670800	-0.02143900	0.00445600	0.00407600	-0.00821800	-0.01606300	0.01624300	0.00329800	0.00235400	-0.00215000	-0.00163500	0.00829600	0.00217300
17	0.16000000	0.02499200	0.08391100	-0.02447000	0.00446800	-0.00139800	-0.00236700	0.00311300	0.03606100	0.00043600	0.02168400	0.01429900	-0.01413500	-0.03707700	0.00162600	0.00372100	-0.00631500	-0.01696300	0.01516600	0.00427800	0.00106700	-0.00503900	-0.00194900	0.00815500	0.00440300
18	0.17000000	0.01916400	0.09504400	-0.02500600	0.00201500	-0.00201200	-0.00371000	0.00677100	0.03000300	-0.00482300	0.03106400	0.01212200	-0.01425500	-0.04445700	-0.00085600	0.00829500	-0.01163800	-0.01264300	0.01541300	0.00439700	0.00313800	-0.00286700	-0.00147500	0.01002000	0.00423800
19	0.18000000	0.01283800	0.10275200	-0.01897400	0.00717500	0.00020300	-0.00613100	0.01031100	0.02621000	-0.01057100	0.03163800	0.01553600	-0.01639900	-0.05623200	0.00150500	0.00933100	-0.01573200	-0.01901100	0.01392700	0.00329800	0.00235300	-0.00215000	-0.00006900	0.00573400	0.00267900
20	0.19000000	0.01513700	0.10726900	-0.00949400	0.00959700	-0.00560800	-0.00656000	0.00998800	0.02383900	-0.01264800	0.04176700	0.02008300	-0.01297500	-0.06659900	0.00764900	0.00524400	-0.01395300	-0.01726200	0.01659600	0.00417100	0.00337100	-0.00907400	0.00040500	0.00759900	0.00251400
21	0.20000000	0.01269400	0.11456700	-0.00104700	0.01095000	-0.00480800	-0.00844200	0.01880600	0.02585900	-0.01325400	0.01814300	0.02261200	-0.01917800	-0.06040800	0.01233000	0.01078200	-0.01560300	-0.02166000	0.01018100	0.00329800	0.00235300	-0.00215000	-0.00242400	0.00628800	0.00456900
22	0.21000000	0.01042600	0.11694800	-0.00995800	0.00565200	-0.01044700	-0.00977100	0.02226300	0.01515500	-0.02010100	0.00403400	0.02387800	-0.01499700	-0.04629500	0.00945600	0.01388700	-0.01345200	-0.02307500	0.00573800	0.00451500	0.00520900	-0.00069500	0.00072000	0.00774000	0.00028400
23	0.22000000	0.01557500	0.12369300	-0.01219300	0.00601000	-0.01246400	-0.01289900	0.01585900	0.02335000	-0.01498600	-0.00361100	0.02030100	-0.00916100	-0.03207600	-0.00083000	0.01508900	-0.00977300	-0.02222700	0.00732900	0.00659500	0.00470600	-0.00430100	-0.00156100	0.00586900	0.00585400
24	0.23000000	0.02308600	0.12167600	-0.01320100	0.00495800	-0.01406100	-0.00971500	0.01393900	0.02934400	-0.01520200	-0.00525600	0.01485800	-0.01236000	-0.01834400	-0.00012000	0.01534600	-0.00720100	-0.01334100	0.00691100	0.00468800	0.00347600	-0.00517500	-0.00093200	0.00615100	0.00139400
25	0.24000000	0.02020900	0.11225500	-0.00646900	0.00595100	-0.01124500	-0.00846900	0.00809200	0.03537900	-0.00703000	-0.00618200	0.01454100	-0.00880600	-0.01658000	-0.00302600	0.01164700	-0.00711900	-0.01510600	0.00441300	0.00209100	0.00387200	-0.00546900	-0.00242400	0.00628700	0.00456900
26	0.25000000	0.01865000	0.11020600	-0.00008300	0.00628400	-0.00561600	-0.00539800	-0.01212400	0.04226600	0.00616600	0.00756200	0.01557400	-0.00996900	-0.01097300	-0.00385000	0.00792200	-0.01112300	-0.01367300	0.00868700	0.00387000	-0.00134500	-0.00490400	-0.00187600	0.00572600	0.00808400
27	0.26000000	0.01703700	0.10859300	-0.00496500	0.00276100	0.00038000	-0.00819400	-0.02398400	0.04553800	0.01036900	0.01570900	0.01857400	-0.00992700	-0.00858500	-0.00340700	0.01325300	-0.00959600	-0.01619300	0.01059100	0.00046400	-0.00139500	-0.00678900	-0.00391700	0.00642200	0.00774400
28	0.27000000	0.00765300	0.12125100	-0.00221200	-0.00193100	-0.00685400	-0.00691800	-0.01778900	0.04742800	0.01012100	0.01678700	0.01089200	-0.01737500	-0.00047400	-0.00809100	0.01437900	-0.00954800	-0.01229400	0.01347200	0.00300600	0.00201400	0.00015700	0.00056500	0.00932100	0.00458000
29	0.28000000	0.01082300	0.11747400	-0.01303500	-0.00096900	-0.01046400	-0.00744400	-0.00886900	0.04165100	0.00419300	0.02045900	0.02108500	-0.01721000	-0.00285000	-0.00231900	0.01190400	-0.00451600	-0.02000100	0.01370200	0.00306200	-0.00179100	-0.00649500	-0.00337300	0.00255500	0.00489900
30	0.29000000	0.00381000	0.12095000	0.00222500	0.00181000	-0.01829300	-0.01099900	-0.00264100	0.03434700	0.00332000	0.01992300	0.02007000	-0.01988400	-0.01668600	0.00438700	0.01355500	-0.00988300	-0.01957700	0.01107700	0.00289800	0.00431700	-0.00387900	-0.00006900	0.00573100	0.00268000
31	0.30000000	0.00616000	0.11260600	-0.00782400	-0.00103400	-0.02331900	-0.01098200	-0.00634400	0.02934600	-0.00307700	0.01237600	0.02207800	-0.02528700	-0.01869300	0.00657500	0.01392800	-0.00822800	-0.01996400	0.01336300	0.00508700	0.00151100	-0.00344900	-0.00156200	0.00586700	0.00585500
32	0.31000000	0.01089300	0.11674000	-0.00617700	0.00092100	-0.02411300	-0.01026300	-0.01563300	0.01664600	-0.00095900	0.00619000	0.01983200	-0.02033700	-0.02595500	-0.00332200	0.01658700	-0.01120100	-0.01668600	0.00705800	0.00659400	0.00470500	-0.00430300	-0.00124600	0.00600800	0.00362500
33	0.32000000	0.01115100	0.11074800	-0.00528400	0.00198900	-0.03072600	-0.00880700	-0.02709300	0.00894900	-0.00586300	-0.00289600	0.01571100	-0.01521900	-0.01961000	-0.00821400	0.01998300	-0.01686000	-0.01964600	0.00491900	0.00301600	0.00638800	-0.00170700	-0.00210900	0.00642700	0.00234000
34	0.33000000	0.01086300	0.10892400	-0.00416300	0.00088300	-0.03054400	-0.01203000	-0.03474900	-0.00155000	-0.00971100	-0.00856300	0.01368100	-0.00599000	-0.01204100	-0.00286100	0.01898200	-0.01975500	-0.01813200	-0.00388400	0.00411500	0.00717200	-0.00242400	-0.00077200	0.00787300	0.00346100
